<svg width="31" height="30" viewBox="0 0 31 30" fill="none" xmlns="http://www.w3.org/2000/svg">
<path d="M28.2379 7.91466C26.8965 5.61643 25.0771 3.79691 22.779 2.45571C20.4807 1.11444 17.9715 0.44397 15.2499 0.44397C12.5285 0.44397 10.0186 1.11464 7.72069 2.45571C5.42246 3.79684 3.60308 5.61643 2.26174 7.91466C0.920603 10.2128 0.25 12.7224 0.25 15.4434C0.25 18.712 1.20361 21.6511 3.1113 24.2616C5.01878 26.8723 7.48297 28.6788 10.5037 29.6814C10.8553 29.7466 11.1156 29.7007 11.2848 29.5448C11.4541 29.3887 11.5387 29.1932 11.5387 28.9591C11.5387 28.92 11.5353 28.5686 11.5288 27.9045C11.5241 27.4346 11.5211 27.0072 11.5198 26.6223C11.519 26.3842 11.3044 26.2036 11.0697 26.2442C10.7833 26.2967 10.422 26.3189 9.98574 26.3126C9.54971 26.3065 9.09705 26.2608 8.62839 26.1759C8.15952 26.0917 7.72342 25.8964 7.31975 25.5904C6.91628 25.2844 6.62986 24.8838 6.46055 24.3894L6.26524 23.94C6.13506 23.6407 5.93011 23.3083 5.65012 22.944C5.41867 22.6426 5.18508 22.4214 4.94926 22.2802C4.85329 22.2227 4.75476 22.1691 4.66381 22.104C4.57269 22.039 4.48814 21.9605 4.40995 21.8695C4.33183 21.7784 4.27334 21.6873 4.23428 21.596C4.19515 21.5047 4.22758 21.4298 4.3319 21.371C4.37515 21.3467 4.43288 21.3275 4.50515 21.3134C4.76314 21.2631 5.02883 21.3033 5.28879 21.3421C5.54922 21.3943 5.87135 21.5502 6.2556 21.8108C6.63964 22.0711 6.95534 22.4096 7.20277 22.8261C7.5024 23.3601 7.86339 23.767 8.28676 24.0469C8.7098 24.3269 9.13632 24.4667 9.56592 24.4667C9.99552 24.4667 10.3666 24.4341 10.6792 24.3694C10.8407 24.3357 10.997 24.2932 11.1482 24.2421C11.4096 24.1537 11.5832 23.8582 11.6492 23.5902C11.8183 22.904 11.3946 21.9288 10.7077 21.762C10.6419 21.746 10.5771 21.7296 10.513 21.7127C9.92075 21.5564 9.30871 21.3026 8.6773 20.9507C8.04556 20.5993 7.52148 20.1629 7.10495 19.6423C6.68834 19.1214 6.34644 18.4376 6.07972 17.5915C5.81286 16.745 5.6794 15.7686 5.6794 14.6619C5.6794 13.9266 5.79139 13.2425 6.01536 12.6094C6.48892 11.2709 6.7846 9.87129 6.91391 8.45735C7.01341 7.36942 8.02257 6.51679 9.03877 6.91782C9.781 7.21081 10.3244 7.4618 10.6696 7.66989C11.2035 7.99167 11.8448 8.09092 12.4557 7.96683C13.3658 7.78197 14.2971 7.68953 15.2497 7.68953C16.2386 7.68953 17.2046 7.78914 18.1477 7.98833C18.6945 8.1038 19.2697 8.02697 19.7422 7.72866C20.2497 7.41603 20.849 7.12954 21.5387 6.86911C22.5011 6.50613 23.4061 7.1987 23.5506 8.21701C23.556 8.25489 23.561 8.29265 23.5655 8.3303C23.7378 9.75449 24.0197 11.278 24.4923 12.6324C24.711 13.2592 24.8204 13.9357 24.8204 14.6621C24.8204 15.7688 24.6865 16.7483 24.42 17.6013C24.1532 18.4544 23.8084 19.1375 23.3853 19.6521C22.9618 20.1666 22.4344 20.5995 21.803 20.9509C21.1715 21.3025 20.5592 21.5563 19.9669 21.7127C19.2205 21.9097 18.7568 23.0695 18.8958 23.8288C18.9522 24.137 18.9804 24.4733 18.9804 24.8379V28.9586C18.9804 29.1927 19.0618 29.3881 19.2248 29.5443C19.3875 29.7002 19.6445 29.7461 19.9961 29.6807C23.0172 28.6784 25.4814 26.8718 27.3888 24.2611C29.2961 21.6506 30.25 18.7114 30.25 15.4429C30.2493 12.7222 29.5784 10.2128 28.2379 7.91466Z" fill="black"/>
</svg>
